<?xml version="1.0" standalone="no"?><!DOCTYPE svg PUBLIC "-//W3C//DTD SVG 1.1//EN" "http://www.w3.org/Graphics/SVG/1.1/DTD/svg11.dtd"><svg class="icon" width="200px" height="200.00px" viewBox="0 0 1024 1024" version="1.1" xmlns="http://www.w3.org/2000/svg"><path d="M380.342857 336.457143m-336.457143 0a336.457143 336.457143 0 1 0 672.914286 0 336.457143 336.457143 0 1 0-672.914286 0Z" fill="#8CF6FB" /><path d="M943.542857 219.428571h-863.085714C59.977143 219.428571 43.885714 203.337143 43.885714 182.857143S59.977143 146.285714 80.457143 146.285714h863.085714c20.48 0 36.571429 16.091429 36.571429 36.571429S964.022857 219.428571 943.542857 219.428571zM394.971429 782.628571v-248.685714c0-20.48 16.091429-36.571429 36.571428-36.571428s36.571429 16.091429 36.571429 36.571428v248.685714c0 20.48-16.091429 36.571429-36.571429 36.571429S394.971429 803.108571 394.971429 782.628571z m175.542857 0v-248.685714c0-20.48 16.091429-36.571429 36.571428-36.571428s36.571429 16.091429 36.571429 36.571428v248.685714c0 20.48-16.091429 36.571429-36.571429 36.571429S570.514286 803.108571 570.514286 782.628571zM182.857143 292.571429c20.48 0 36.571429 16.091429 36.571428 36.571428v570.514286c0 27.794286 23.405714 51.2 51.2 51.2h497.371429c27.794286 0 51.2-23.405714 51.2-51.2v-570.514286c0-20.48 16.091429-36.571429 36.571429-36.571428s36.571429 16.091429 36.571428 36.571428v570.514286c0 68.754286-55.588571 124.342857-124.342857 124.342857h-497.371429C201.874286 1024 146.285714 968.411429 146.285714 899.657143v-570.514286C146.285714 308.662857 162.377143 292.571429 182.857143 292.571429z" fill="#3C2DCB" /><path d="M512 0c57.051429 0 102.4 45.348571 102.4 102.4H409.6c0-57.051429 45.348571-102.4 102.4-102.4z" fill="#D098FF" /></svg>