<?xml version="1.0" standalone="no"?><!DOCTYPE svg PUBLIC "-//W3C//DTD SVG 1.1//EN" "http://www.w3.org/Graphics/SVG/1.1/DTD/svg11.dtd"><svg class="icon" width="200px" height="200.00px" viewBox="0 0 1024 1024" version="1.1" xmlns="http://www.w3.org/2000/svg"><path d="M400.170881 339.701111m-334.86967 0a334.869669 334.869669 0 1 0 669.739339 0 334.869669 334.869669 0 1 0-669.739339 0Z" fill="#8CF6FB" /><path d="M802.014484 777.943591c-7.279775 5.82382-14.559551 8.735731-23.295282 8.73573-20.383371 0-36.398877-16.015506-36.398877-36.398877 0-10.191686 4.367865-20.383371 11.647641-27.663146 154.331239-135.403823 168.89079-369.812591 33.486967-524.143831S417.642342 29.582678 263.311103 164.986501C110.435819 301.846278 94.420313 536.255047 229.824136 690.586286c10.191686 11.647641 21.839326 23.295281 33.486967 33.486967 14.559551 13.103596 16.015506 36.398877 2.91191 50.958428-13.103596 14.559551-36.398877 16.015506-50.958428 2.91191C31.814245 616.332577 14.342783 335.333245 175.953798 150.42695S618.564143-50.494852 803.470439 111.116162s202.377757 442.610345 39.310787 626.060686c-13.103596 14.559551-26.207192 27.663147-40.766742 40.766743z" fill="#3C2DCB" /><path d="M320.093351 820.166288h363.988771c20.383371 0 36.398877 16.015506 36.398877 36.398877S704.465493 892.964042 684.082122 892.964042h-363.988771c-20.383371 0-36.398877-16.015506-36.398877-36.398877s16.015506-36.398877 36.398877-36.398877z m87.357305 131.035958h189.274161c20.383371 0 36.398877 16.015506 36.398877 36.398877S617.108188 1024 596.724817 1024h-189.274161c-20.383371 0-36.398877-16.015506-36.398877-36.398877s16.015506-36.398877 36.398877-36.398877z" fill="#D098FF" /></svg>