<?xml version="1.0" standalone="no"?><!DOCTYPE svg PUBLIC "-//W3C//DTD SVG 1.1//EN" "http://www.w3.org/Graphics/SVG/1.1/DTD/svg11.dtd"><svg class="icon" width="200px" height="200.00px" viewBox="0 0 1024 1024" version="1.1" xmlns="http://www.w3.org/2000/svg"><path d="M338.929577 331.71831m-331.718309 0a331.71831 331.71831 0 1 0 663.436619 0 331.71831 331.71831 0 1 0-663.436619 0Z" fill="#8CF6FB" /><path d="M894.197183 807.661972h-764.394366C62.016901 807.661972 7.211268 752.856338 7.211268 685.070423v-562.478874C7.211268 54.805634 62.016901 0 129.802817 0h764.394366C961.983099 0 1016.788732 54.805634 1016.788732 122.591549v562.478874c0 67.785915-54.805634 122.591549-122.591549 122.591549zM944.676056 122.591549C944.676056 95.188732 921.6 72.112676 894.197183 72.112676h-764.394366C102.4 72.112676 79.323944 95.188732 79.323944 122.591549v562.478874C79.323944 712.473239 102.4 735.549296 129.802817 735.549296h764.394366c27.402817 0 50.478873-23.076056 50.478873-50.478873v-562.478874z" fill="#3C2DCB" /><path d="M317.295775 951.887324h389.40845c20.191549 0 36.056338 15.864789 36.056338 36.056338S726.895775 1024 706.704225 1024h-389.40845c-20.191549 0-36.056338-15.864789-36.056338-36.056338s15.864789-36.056338 36.056338-36.056338z" fill="#D098FF" /></svg>