<?xml version="1.0" standalone="no"?><!DOCTYPE svg PUBLIC "-//W3C//DTD SVG 1.1//EN" "http://www.w3.org/Graphics/SVG/1.1/DTD/svg11.dtd"><svg class="icon" width="200px" height="192.66px" viewBox="0 0 1063 1024" version="1.1" xmlns="http://www.w3.org/2000/svg"><path d="M356.848485 356.848485m-356.848485 0a356.848485 356.848485 0 1 0 713.69697 0 356.848485 356.848485 0 1 0-713.69697 0Z" fill="#8CF6FB" /><path d="M1033.309091 479.418182l-152.048485 144.290909c-23.272727 21.721212-34.133333 52.751515-27.927273 83.781818l38.787879 206.351515c9.309091 51.2-24.824242 99.29697-74.472727 108.606061-4.654545 1.551515-10.860606 1.551515-15.515152 1.551515-15.515152 0-31.030303-4.654545-44.993939-12.412121l-178.424242-99.29697c-27.927273-15.515152-62.060606-15.515152-89.987879 0L310.30303 1011.587879c-13.963636 7.757576-29.478788 12.412121-44.993939 12.412121-20.169697 0-38.787879-6.206061-54.30303-18.618182-29.478788-20.169697-43.442424-57.406061-37.236364-93.090909l38.787879-206.351515c6.206061-31.030303-4.654545-63.612121-27.927273-83.781818l-152.048485-144.290909c-37.236364-35.684848-38.787879-94.642424-3.10303-131.878788 13.963636-15.515152 34.133333-24.824242 55.854545-27.927273l204.8-26.375758c32.581818-3.10303 58.957576-23.272727 72.921212-52.751515L449.939394 54.30303c21.721212-46.545455 76.024242-66.715152 122.569697-44.993939 20.169697 9.309091 35.684848 24.824242 44.993939 44.993939l86.884849 187.733334c12.412121 29.478788 40.339394 49.648485 72.921212 52.751515l204.8 26.375757c51.2 6.206061 86.884848 52.751515 80.678788 103.951516-4.654545 20.169697-13.963636 38.787879-29.478788 54.30303z m-49.648485-72.921212c-1.551515-6.206061-6.206061-10.860606-12.412121-10.860606l-204.8-26.375758c-58.957576-6.206061-108.606061-43.442424-131.878788-97.745454L547.684848 86.884848c-3.10303-7.757576-12.412121-10.860606-20.169696-7.757575-3.10303 1.551515-6.206061 4.654545-7.757576 7.757575l-86.884849 187.733334c-24.824242 52.751515-74.472727 89.987879-133.430303 97.745454L96.193939 395.636364c-7.757576 1.551515-13.963636 9.309091-13.963636 17.066666 0 3.10303 1.551515 6.206061 4.654545 9.309091l152.048485 144.290909c41.890909 38.787879 60.509091 97.745455 49.648485 155.151515l-38.787879 206.351516c-1.551515 6.206061 1.551515 12.412121 6.206061 15.515151 3.10303 1.551515 6.206061 3.10303 9.309091 3.10303 3.10303 0 4.654545-1.551515 7.757576-3.10303L449.939394 845.575758c51.2-29.478788 114.812121-29.478788 166.012121 0l178.424243 99.296969c3.10303 1.551515 4.654545 1.551515 7.757575 3.103031 3.10303 0 6.206061-1.551515 9.309091-3.103031 4.654545-3.10303 7.757576-9.309091 6.206061-15.515151l-38.787879-206.351515c-10.860606-57.406061 7.757576-114.812121 49.648485-155.151516l152.048485-144.290909c4.654545-4.654545 6.206061-10.860606 3.10303-17.066666z" fill="#3C2DCB" /><path d="M541.478788 704.387879c-15.515152 15.515152-40.339394 15.515152-54.30303 0l-121.018182-121.018182c-13.963636-15.515152-13.963636-40.339394 1.551515-54.30303 15.515152-13.963636 37.236364-13.963636 52.751515 0l93.090909 93.090909 181.527273-181.527273c15.515152-13.963636 40.339394-13.963636 54.30303 1.551515 13.963636 15.515152 13.963636 37.236364 0 52.751515L541.478788 704.387879z" fill="#D098FF" /></svg>