<?xml version="1.0" standalone="no"?><!DOCTYPE svg PUBLIC "-//W3C//DTD SVG 1.1//EN" "http://www.w3.org/Graphics/SVG/1.1/DTD/svg11.dtd"><svg class="icon" width="200px" height="200.00px" viewBox="0 0 1024 1024" version="1.1" xmlns="http://www.w3.org/2000/svg"><path d="M382.969483 334.90224m-334.90224 0a334.90224 334.90224 0 1 0 669.804479 0 334.90224 334.90224 0 1 0-669.804479 0Z" fill="#8CF6FB" /><path d="M917.356969 813.958052L570.805956 1007.618912c-37.858514 21.84145-82.997512 21.84145-120.856025 0L104.855014 813.958052C68.452597 792.116601 45.15505 752.801991 45.15505 709.11909V318.885176c0-42.226804 21.84145-81.541415 59.699964-103.382865L451.406027 21.84145c37.858514-21.84145 82.997512-21.84145 120.856026 0L918.813066 215.502311c36.402417 21.84145 59.699964 61.156061 59.699965 103.382865v390.233914c-1.456097 43.682901-24.753644 82.997512-61.156062 104.838962z m-14.560966-495.072876c0-16.017064-8.73658-32.034127-23.297548-39.314611L534.403539 84.453608c-14.560967-8.73658-32.034127-8.73658-46.595094 0L141.257432 279.570565c-14.560967 8.73658-23.297547 23.297547-23.297548 39.314611v390.233914c0 16.017064 8.73658 32.034127 23.297548 40.770707l346.551013 193.660861c14.560967 8.73658 32.034127 8.73658 46.595094 0l346.551013-193.660861c14.560967-8.73658 23.297547-23.297547 23.297547-40.770707V318.885176h-1.456096z" fill="#3C2DCB" /><path d="M514.018185 698.926413c-104.838962 0-189.29257-84.453608-189.29257-189.29257s84.453608-189.29257 189.29257-189.29257 189.29257 84.453608 189.29257 189.29257-84.453608 189.29257-189.29257 189.29257z m0-305.780306c-64.068255 0-116.487736 52.419481-116.487735 116.487736s52.419481 116.487736 116.487735 116.487735 116.487736-52.419481 116.487736-116.487735-50.963384-116.487736-116.487736-116.487736z" fill="#D098FF" /></svg>