<?xml version="1.0" standalone="no"?><!DOCTYPE svg PUBLIC "-//W3C//DTD SVG 1.1//EN" "http://www.w3.org/Graphics/SVG/1.1/DTD/svg11.dtd"><svg class="icon" width="200px" height="200.00px" viewBox="0 0 1024 1024" version="1.1" xmlns="http://www.w3.org/2000/svg"><path d="M385.4375 385.4375m-323.4375 0a323.4375 323.4375 0 1 0 646.875 0 323.4375 323.4375 0 1 0-646.875 0Z" fill="#8CF6FB" /><path d="M842.46875 962h-660.9375C115.4375 962 62 908.5625 62 842.46875v-660.9375C62 115.4375 115.4375 62 181.53125 62h379.6875C580.90625 62 596.375 77.46875 596.375 97.15625S580.90625 132.3125 561.21875 132.3125h-379.6875C154.8125 132.3125 132.3125 154.8125 132.3125 181.53125v660.9375C132.3125 869.1875 154.8125 891.6875 181.53125 891.6875h660.9375c26.71875 0 49.21875-22.5 49.21875-49.21875v-379.6875c0-19.6875 15.46875-35.15625 35.15625-35.15625s35.15625 15.46875 35.15625 35.15625v379.6875c0 66.09375-53.4375 119.53125-119.53125 119.53125z" fill="#3C2DCB" /><path d="M921.21875 323.5625c-19.6875 0-35.15625-15.46875-35.15625-35.15625V180.125l-281.25 281.25c-14.0625 14.0625-36.5625 14.0625-49.21875 0s-14.0625-36.5625 0-49.21875L825.59375 140.75h-87.1875c-19.6875 0-35.15625-15.46875-35.15625-35.15625S718.71875 70.4375 738.40625 70.4375h178.59375c28.125 0 39.375 7.03125 39.375 35.15625v182.8125c0 18.28125-15.46875 35.15625-35.15625 35.15625z" fill="#D098FF" /></svg>