<?xml version="1.0" standalone="no"?><!DOCTYPE svg PUBLIC "-//W3C//DTD SVG 1.1//EN" "http://www.w3.org/Graphics/SVG/1.1/DTD/svg11.dtd"><svg class="icon" width="200px" height="200.00px" viewBox="0 0 1024 1024" version="1.1" xmlns="http://www.w3.org/2000/svg"><path d="M336.457143 336.457143m-336.457143 0a336.457143 336.457143 0 1 0 672.914286 0 336.457143 336.457143 0 1 0-672.914286 0Z" fill="#8CF6FB" /><path d="M512 1024C229.668571 1024 0 794.331429 0 512S229.668571 0 512 0s512 229.668571 512 512-229.668571 512-512 512z m0-950.857143C269.165714 73.142857 73.142857 269.165714 73.142857 512s196.022857 438.857143 438.857143 438.857143 438.857143-196.022857 438.857143-438.857143S754.834286 73.142857 512 73.142857z" fill="#3C2DCB" /><path d="M624.64 487.131429L555.885714 406.674286v288.182857c0 20.48-16.091429 36.571429-36.571428 36.571428S482.742857 715.337143 482.742857 694.857143V406.674286l-83.382857 80.457143c-14.628571 14.628571-38.034286 14.628571-51.2 0-14.628571-13.165714-14.628571-35.108571-1.462857-49.737143l1.462857-1.462857 138.971429-133.12c7.314286-7.314286 19.017143-11.702857 29.257142-10.24h2.925715c16.091429 0 30.72 10.24 35.108571 26.331428l122.88 118.491429c14.628571 13.165714 14.628571 35.108571 1.462857 49.737143l-1.462857 1.462857c-14.628571 13.165714-38.034286 13.165714-52.662857-1.462857z" fill="#D098FF" /></svg>